<svg width="202" height="40" viewBox="0 0 202 40" fill="none" xmlns="http://www.w3.org/2000/svg">
<rect width="40" height="40" rx="5" fill="#FF6652"/>
<g clip-path="url(#clip0_171_1965)">
<path d="M9.94624 10.8328C9.94547 10.8328 9.94459 10.8328 9.94382 10.8328C9.67143 10.8328 9.41523 10.9212 9.22178 11.0821C9.02619 11.2446 8.91846 11.4611 8.91846 11.6916V24.5696C8.91846 25.0419 9.3813 25.427 9.95032 25.4282C12.3492 25.433 16.3682 25.8496 19.1408 28.2675V14.7903C19.1408 14.6302 19.0917 14.4798 18.9991 14.3554C16.7235 11.3015 12.3505 10.8375 9.94624 10.8328Z" fill="white"/>
<path d="M30.9631 24.5695V11.6914C30.9631 11.4609 30.8553 11.2444 30.6597 11.0818C30.4663 10.921 30.2099 10.8325 29.9378 10.8325C29.9369 10.8325 29.9361 10.8325 29.9353 10.8325C27.5311 10.8373 23.1581 11.3013 20.8825 14.3552C20.7898 14.4796 20.7409 14.63 20.7409 14.7901V28.2672C23.5134 25.8494 27.5325 25.4327 29.9313 25.428C30.5002 25.4267 30.9631 25.0416 30.9631 24.5695Z" fill="white"/>
<path d="M33.3104 13.8027H32.5631V24.5697C32.5631 25.7755 31.3842 26.7587 29.9351 26.7616C27.9004 26.7657 24.5454 27.0972 22.1694 28.9713C26.2788 28.1328 30.6108 28.6779 33.0797 29.1467C33.3879 29.2052 33.7065 29.1448 33.9535 28.9807C34.1996 28.8171 34.3408 28.5725 34.3408 28.3099V14.6614C34.3409 14.1879 33.8785 13.8027 33.3104 13.8027Z" fill="white"/>
<path d="M7.31843 24.5697V13.8027H6.57117C6.00312 13.8027 5.54077 14.1879 5.54077 14.6614V28.3097C5.54077 28.5723 5.68196 28.8168 5.92807 28.9805C6.17486 29.1444 6.49311 29.2051 6.80187 29.1465C9.27072 28.6775 13.6029 28.1326 17.7121 28.971C15.3361 27.0971 11.9811 26.7656 9.94641 26.7616C8.49739 26.7587 7.31843 25.7755 7.31843 24.5697Z" fill="white"/>
</g>
<path d="M58.58 29.3C57.14 29.3 55.8967 28.9867 54.85 28.36C53.81 27.7333 53.0067 26.8567 52.44 25.73C51.88 24.6033 51.6 23.2933 51.6 21.8C51.6 20.3067 51.88 18.9967 52.44 17.87C53.0067 16.7433 53.81 15.8667 54.85 15.24C55.8967 14.6133 57.14 14.3 58.58 14.3C60.2333 14.3 61.62 14.71 62.74 15.53C63.8667 16.35 64.66 17.46 65.12 18.86L62.38 19.62C62.1133 18.7467 61.6633 18.07 61.03 17.59C60.3967 17.1033 59.58 16.86 58.58 16.86C57.6667 16.86 56.9033 17.0633 56.29 17.47C55.6833 17.8767 55.2267 18.45 54.92 19.19C54.6133 19.93 54.46 20.8 54.46 21.8C54.46 22.8 54.6133 23.67 54.92 24.41C55.2267 25.15 55.6833 25.7233 56.29 26.13C56.9033 26.5367 57.6667 26.74 58.58 26.74C59.58 26.74 60.3967 26.4967 61.03 26.01C61.6633 25.5233 62.1133 24.8467 62.38 23.98L65.12 24.74C64.66 26.14 63.8667 27.25 62.74 28.07C61.62 28.89 60.2333 29.3 58.58 29.3ZM72.1819 29.3C71.0952 29.3 70.1419 29.0567 69.3219 28.57C68.5019 28.0833 67.8619 27.4133 67.4019 26.56C66.9485 25.7 66.7219 24.7133 66.7219 23.6C66.7219 22.4733 66.9552 21.4833 67.4219 20.63C67.8885 19.77 68.5319 19.1 69.3519 18.62C70.1719 18.14 71.1152 17.9 72.1819 17.9C73.2685 17.9 74.2219 18.1433 75.0419 18.63C75.8685 19.1167 76.5119 19.79 76.9719 20.65C77.4319 21.5033 77.6619 22.4867 77.6619 23.6C77.6619 24.72 77.4285 25.71 76.9619 26.57C76.5019 27.4233 75.8585 28.0933 75.0319 28.58C74.2119 29.06 73.2619 29.3 72.1819 29.3ZM72.1819 26.76C73.0552 26.76 73.7052 26.4667 74.1319 25.88C74.5652 25.2867 74.7819 24.5267 74.7819 23.6C74.7819 22.64 74.5619 21.8733 74.1219 21.3C73.6885 20.7267 73.0419 20.44 72.1819 20.44C71.5885 20.44 71.1019 20.5733 70.7219 20.84C70.3419 21.1067 70.0585 21.4767 69.8719 21.95C69.6919 22.4233 69.6019 22.9733 69.6019 23.6C69.6019 24.5667 69.8185 25.3367 70.2519 25.91C70.6919 26.4767 71.3352 26.76 72.1819 26.76ZM83.8809 29.32C83.0343 29.32 82.3443 29.1767 81.8109 28.89C81.2776 28.6033 80.8609 28.24 80.5609 27.8C80.2676 27.36 80.0576 26.9033 79.9309 26.43C79.8043 25.95 79.7276 25.5133 79.7009 25.12C79.6743 24.7267 79.6609 24.44 79.6609 24.26V18.2H82.4209V23.3C82.4209 23.5467 82.4343 23.8633 82.4609 24.25C82.4876 24.63 82.5709 25.0133 82.7109 25.4C82.8509 25.7867 83.0776 26.11 83.3909 26.37C83.7109 26.63 84.1609 26.76 84.7409 26.76C84.9743 26.76 85.2243 26.7233 85.4909 26.65C85.7576 26.5767 86.0076 26.4367 86.2409 26.23C86.4743 26.0167 86.6643 25.7067 86.8109 25.3C86.9643 24.8867 87.0409 24.3467 87.0409 23.68L88.6009 24.42C88.6009 25.2733 88.4276 26.0733 88.0809 26.82C87.7343 27.5667 87.2109 28.17 86.5109 28.63C85.8176 29.09 84.9409 29.32 83.8809 29.32ZM87.3809 29V25.42H87.0409V18.2H89.7809V29H87.3809ZM92.5758 29V18.2H94.9758V20.84L94.7158 20.5C94.8558 20.1267 95.0424 19.7867 95.2758 19.48C95.5091 19.1733 95.7958 18.92 96.1358 18.72C96.3958 18.56 96.6791 18.4367 96.9858 18.35C97.2924 18.2567 97.6091 18.2 97.9358 18.18C98.2624 18.1533 98.5891 18.16 98.9158 18.2V20.74C98.6158 20.6467 98.2658 20.6167 97.8658 20.65C97.4724 20.6767 97.1158 20.7667 96.7958 20.92C96.4758 21.0667 96.2058 21.2633 95.9858 21.51C95.7658 21.75 95.5991 22.0367 95.4858 22.37C95.3724 22.6967 95.3158 23.0667 95.3158 23.48V29H92.5758ZM104.647 29.3C103.287 29.3 102.187 28.9933 101.347 28.38C100.514 27.76 100.007 26.8867 99.8273 25.76L102.607 25.34C102.721 25.8467 102.971 26.2433 103.357 26.53C103.751 26.8167 104.247 26.96 104.847 26.96C105.341 26.96 105.721 26.8667 105.987 26.68C106.254 26.4867 106.387 26.22 106.387 25.88C106.387 25.6667 106.334 25.4967 106.227 25.37C106.121 25.2367 105.881 25.1067 105.507 24.98C105.141 24.8533 104.567 24.6867 103.787 24.48C102.907 24.2533 102.204 24 101.677 23.72C101.151 23.44 100.771 23.1067 100.537 22.72C100.304 22.3267 100.187 21.8533 100.187 21.3C100.187 20.6067 100.364 20.0067 100.717 19.5C101.071 18.9867 101.567 18.5933 102.207 18.32C102.854 18.04 103.614 17.9 104.487 17.9C105.334 17.9 106.084 18.03 106.737 18.29C107.391 18.55 107.917 18.92 108.317 19.4C108.724 19.88 108.974 20.4467 109.067 21.1L106.287 21.6C106.241 21.2 106.067 20.8833 105.767 20.65C105.467 20.4167 105.061 20.28 104.547 20.24C104.047 20.2067 103.644 20.2733 103.337 20.44C103.037 20.6067 102.887 20.8467 102.887 21.16C102.887 21.3467 102.951 21.5033 103.077 21.63C103.211 21.7567 103.481 21.8867 103.887 22.02C104.301 22.1533 104.927 22.3267 105.767 22.54C106.587 22.7533 107.244 23.0033 107.737 23.29C108.237 23.57 108.601 23.91 108.827 24.31C109.054 24.7033 109.167 25.18 109.167 25.74C109.167 26.8467 108.767 27.7167 107.967 28.35C107.167 28.9833 106.061 29.3 104.647 29.3ZM116.385 29.3C115.278 29.3 114.302 29.0633 113.455 28.59C112.615 28.11 111.955 27.4533 111.475 26.62C111.002 25.78 110.765 24.82 110.765 23.74C110.765 22.56 110.998 21.5333 111.465 20.66C111.932 19.7867 112.575 19.11 113.395 18.63C114.215 18.1433 115.158 17.9 116.225 17.9C117.358 17.9 118.322 18.1667 119.115 18.7C119.908 19.2333 120.495 19.9833 120.875 20.95C121.255 21.9167 121.388 23.0533 121.275 24.36H118.585V23.36C118.585 22.26 118.408 21.47 118.055 20.99C117.708 20.5033 117.138 20.26 116.345 20.26C115.418 20.26 114.735 20.5433 114.295 21.11C113.862 21.67 113.645 22.5 113.645 23.6C113.645 24.6067 113.862 25.3867 114.295 25.94C114.735 26.4867 115.378 26.76 116.225 26.76C116.758 26.76 117.215 26.6433 117.595 26.41C117.975 26.1767 118.265 25.84 118.465 25.4L121.185 26.18C120.778 27.1667 120.135 27.9333 119.255 28.48C118.382 29.0267 117.425 29.3 116.385 29.3ZM112.805 24.36V22.34H119.965V24.36H112.805ZM123.533 29V14.6H125.973L130.733 24.16L135.493 14.6H137.933V29H135.393V20.4L131.213 29H130.253L126.073 20.4V29H123.533ZM143.74 29.3C142.967 29.3 142.31 29.1533 141.77 28.86C141.237 28.56 140.83 28.1633 140.55 27.67C140.277 27.17 140.14 26.62 140.14 26.02C140.14 25.52 140.217 25.0633 140.37 24.65C140.523 24.2367 140.77 23.8733 141.11 23.56C141.457 23.24 141.92 22.9733 142.5 22.76C142.9 22.6133 143.377 22.4833 143.93 22.37C144.483 22.2567 145.11 22.15 145.81 22.05C146.51 21.9433 147.28 21.8267 148.12 21.7L147.14 22.24C147.14 21.6 146.987 21.13 146.68 20.83C146.373 20.53 145.86 20.38 145.14 20.38C144.74 20.38 144.323 20.4767 143.89 20.67C143.457 20.8633 143.153 21.2067 142.98 21.7L140.52 20.92C140.793 20.0267 141.307 19.3 142.06 18.74C142.813 18.18 143.84 17.9 145.14 17.9C146.093 17.9 146.94 18.0467 147.68 18.34C148.42 18.6333 148.98 19.14 149.36 19.86C149.573 20.26 149.7 20.66 149.74 21.06C149.78 21.46 149.8 21.9067 149.8 22.4V29H147.42V26.78L147.76 27.24C147.233 27.9667 146.663 28.4933 146.05 28.82C145.443 29.14 144.673 29.3 143.74 29.3ZM144.32 27.16C144.82 27.16 145.24 27.0733 145.58 26.9C145.927 26.72 146.2 26.5167 146.4 26.29C146.607 26.0633 146.747 25.8733 146.82 25.72C146.96 25.4267 147.04 25.0867 147.06 24.7C147.087 24.3067 147.1 23.98 147.1 23.72L147.9 23.92C147.093 24.0533 146.44 24.1667 145.94 24.26C145.44 24.3467 145.037 24.4267 144.73 24.5C144.423 24.5733 144.153 24.6533 143.92 24.74C143.653 24.8467 143.437 24.9633 143.27 25.09C143.11 25.21 142.99 25.3433 142.91 25.49C142.837 25.6367 142.8 25.8 142.8 25.98C142.8 26.2267 142.86 26.44 142.98 26.62C143.107 26.7933 143.283 26.9267 143.51 27.02C143.737 27.1133 144.007 27.16 144.32 27.16ZM156.62 29.3C155.26 29.3 154.16 28.9933 153.32 28.38C152.487 27.76 151.98 26.8867 151.8 25.76L154.58 25.34C154.693 25.8467 154.943 26.2433 155.33 26.53C155.723 26.8167 156.22 26.96 156.82 26.96C157.313 26.96 157.693 26.8667 157.96 26.68C158.227 26.4867 158.36 26.22 158.36 25.88C158.36 25.6667 158.307 25.4967 158.2 25.37C158.093 25.2367 157.853 25.1067 157.48 24.98C157.113 24.8533 156.54 24.6867 155.76 24.48C154.88 24.2533 154.177 24 153.65 23.72C153.123 23.44 152.743 23.1067 152.51 22.72C152.277 22.3267 152.16 21.8533 152.16 21.3C152.16 20.6067 152.337 20.0067 152.69 19.5C153.043 18.9867 153.54 18.5933 154.18 18.32C154.827 18.04 155.587 17.9 156.46 17.9C157.307 17.9 158.057 18.03 158.71 18.29C159.363 18.55 159.89 18.92 160.29 19.4C160.697 19.88 160.947 20.4467 161.04 21.1L158.26 21.6C158.213 21.2 158.04 20.8833 157.74 20.65C157.44 20.4167 157.033 20.28 156.52 20.24C156.02 20.2067 155.617 20.2733 155.31 20.44C155.01 20.6067 154.86 20.8467 154.86 21.16C154.86 21.3467 154.923 21.5033 155.05 21.63C155.183 21.7567 155.453 21.8867 155.86 22.02C156.273 22.1533 156.9 22.3267 157.74 22.54C158.56 22.7533 159.217 23.0033 159.71 23.29C160.21 23.57 160.573 23.91 160.8 24.31C161.027 24.7033 161.14 25.18 161.14 25.74C161.14 26.8467 160.74 27.7167 159.94 28.35C159.14 28.9833 158.033 29.3 156.62 29.3ZM169.818 29C169.071 29.14 168.338 29.2 167.618 29.18C166.904 29.1667 166.264 29.0433 165.698 28.81C165.138 28.57 164.711 28.1867 164.418 27.66C164.151 27.1667 164.011 26.6667 163.998 26.16C163.984 25.6467 163.978 25.0667 163.978 24.42V15.2H166.698V24.26C166.698 24.68 166.701 25.06 166.708 25.4C166.721 25.7333 166.791 26 166.918 26.2C167.158 26.58 167.541 26.7867 168.068 26.82C168.594 26.8533 169.178 26.8267 169.818 26.74V29ZM162.138 20.3V18.2H169.818V20.3H162.138ZM176.658 29.3C175.552 29.3 174.575 29.0633 173.728 28.59C172.888 28.11 172.228 27.4533 171.748 26.62C171.275 25.78 171.038 24.82 171.038 23.74C171.038 22.56 171.272 21.5333 171.738 20.66C172.205 19.7867 172.848 19.11 173.668 18.63C174.488 18.1433 175.432 17.9 176.498 17.9C177.632 17.9 178.595 18.1667 179.388 18.7C180.182 19.2333 180.768 19.9833 181.148 20.95C181.528 21.9167 181.662 23.0533 181.548 24.36H178.858V23.36C178.858 22.26 178.682 21.47 178.328 20.99C177.982 20.5033 177.412 20.26 176.618 20.26C175.692 20.26 175.008 20.5433 174.568 21.11C174.135 21.67 173.918 22.5 173.918 23.6C173.918 24.6067 174.135 25.3867 174.568 25.94C175.008 26.4867 175.652 26.76 176.498 26.76C177.032 26.76 177.488 26.6433 177.868 26.41C178.248 26.1767 178.538 25.84 178.738 25.4L181.458 26.18C181.052 27.1667 180.408 27.9333 179.528 28.48C178.655 29.0267 177.698 29.3 176.658 29.3ZM173.078 24.36V22.34H180.238V24.36H173.078ZM183.806 29V18.2H186.206V20.84L185.946 20.5C186.086 20.1267 186.273 19.7867 186.506 19.48C186.74 19.1733 187.026 18.92 187.366 18.72C187.626 18.56 187.91 18.4367 188.216 18.35C188.523 18.2567 188.84 18.2 189.166 18.18C189.493 18.1533 189.82 18.16 190.146 18.2V20.74C189.846 20.6467 189.496 20.6167 189.096 20.65C188.703 20.6767 188.346 20.7667 188.026 20.92C187.706 21.0667 187.436 21.2633 187.216 21.51C186.996 21.75 186.83 22.0367 186.716 22.37C186.603 22.6967 186.546 23.0667 186.546 23.48V29H183.806ZM193.038 33.8L195.118 28.08L195.158 29.76L190.458 18.2H193.278L196.438 26.38H195.798L198.938 18.2H201.658L195.558 33.8H193.038Z" fill="#0A033C"/>
<defs>
<clipPath id="clip0_171_1965">
<rect width="28.8" height="24" fill="white" transform="translate(5.54077 8)"/>
</clipPath>
</defs>
</svg>
