<svg width="246" height="54" viewBox="0 0 246 54" fill="none" xmlns="http://www.w3.org/2000/svg">
<rect width="54" height="54" rx="5" fill="#FF6652"/>
<g clip-path="url(#clip0_356_281)">
<path d="M13.4274 14.6239C13.4264 14.6239 13.4252 14.6239 13.4242 14.6239C13.0564 14.6239 12.7106 14.7434 12.4494 14.9604C12.1854 15.1799 12.0399 15.4722 12.0399 15.7833V33.1686C12.0399 33.8062 12.6647 34.3261 13.4329 34.3277C16.6714 34.3342 22.097 34.8966 25.84 38.1608V19.9665C25.84 19.7504 25.7738 19.5474 25.6488 19.3794C22.5767 15.2566 16.6732 14.6302 13.4274 14.6239Z" fill="white"/>
<path d="M41.8001 33.1686V15.7831C41.8001 15.472 41.6546 15.1798 41.3906 14.9603C41.1294 14.7432 40.7833 14.6237 40.416 14.6237C40.4148 14.6237 40.4136 14.6237 40.4126 14.6237C37.1669 14.6302 31.2634 15.2566 28.1912 19.3793C28.0662 19.5473 28.0001 19.7504 28.0001 19.9665V38.1606C31.7431 34.8965 37.1688 34.334 40.4072 34.3276C41.1753 34.3259 41.8001 33.806 41.8001 33.1686Z" fill="white"/>
<path d="M44.9689 18.6334H43.9601V33.1688C43.9601 34.7965 42.3687 36.1239 40.4123 36.1279C37.6655 36.1334 33.1363 36.5809 29.9286 39.1109C35.4763 37.979 41.3245 38.7148 44.6575 39.3477C45.0736 39.4267 45.5037 39.3451 45.8371 39.1237C46.1694 38.9027 46.36 38.5725 46.36 38.2181V19.7926C46.3601 19.1534 45.7359 18.6334 44.9689 18.6334Z" fill="white"/>
<path d="M9.87981 33.1688V18.6334H8.87103C8.10416 18.6334 7.47998 19.1534 7.47998 19.7926V38.2178C7.47998 38.5723 7.67058 38.9024 8.00283 39.1233C8.336 39.3447 8.76564 39.4266 9.18246 39.3474C12.5154 38.7143 18.3638 37.9786 23.9112 39.1106C20.7037 36.5807 16.1745 36.1332 13.4276 36.1278C11.4714 36.1239 9.87981 34.7965 9.87981 33.1688Z" fill="white"/>
</g>
<path d="M74.37 38.45C72.21 38.45 70.345 37.98 68.775 37.04C67.215 36.1 66.01 34.785 65.16 33.095C64.32 31.405 63.9 29.44 63.9 27.2C63.9 24.96 64.32 22.995 65.16 21.305C66.01 19.615 67.215 18.3 68.775 17.36C70.345 16.42 72.21 15.95 74.37 15.95C76.85 15.95 78.93 16.565 80.61 17.795C82.3 19.025 83.49 20.69 84.18 22.79L80.07 23.93C79.67 22.62 78.995 21.605 78.045 20.885C77.095 20.155 75.87 19.79 74.37 19.79C73 19.79 71.855 20.095 70.935 20.705C70.025 21.315 69.34 22.175 68.88 23.285C68.42 24.395 68.19 25.7 68.19 27.2C68.19 28.7 68.42 30.005 68.88 31.115C69.34 32.225 70.025 33.085 70.935 33.695C71.855 34.305 73 34.61 74.37 34.61C75.87 34.61 77.095 34.245 78.045 33.515C78.995 32.785 79.67 31.77 80.07 30.47L84.18 31.61C83.49 33.71 82.3 35.375 80.61 36.605C78.93 37.835 76.85 38.45 74.37 38.45ZM94.7728 38.45C93.1428 38.45 91.7128 38.085 90.4828 37.355C89.2528 36.625 88.2928 35.62 87.6028 34.34C86.9228 33.05 86.5828 31.57 86.5828 29.9C86.5828 28.21 86.9328 26.725 87.6328 25.445C88.3328 24.155 89.2978 23.15 90.5278 22.43C91.7578 21.71 93.1728 21.35 94.7728 21.35C96.4028 21.35 97.8328 21.715 99.0628 22.445C100.303 23.175 101.268 24.185 101.958 25.475C102.648 26.755 102.993 28.23 102.993 29.9C102.993 31.58 102.643 33.065 101.943 34.355C101.253 35.635 100.288 36.64 99.0478 37.37C97.8178 38.09 96.3928 38.45 94.7728 38.45ZM94.7728 34.64C96.0828 34.64 97.0578 34.2 97.6978 33.32C98.3478 32.43 98.6728 31.29 98.6728 29.9C98.6728 28.46 98.3428 27.31 97.6828 26.45C97.0328 25.59 96.0628 25.16 94.7728 25.16C93.8828 25.16 93.1528 25.36 92.5828 25.76C92.0128 26.16 91.5878 26.715 91.3078 27.425C91.0378 28.135 90.9028 28.96 90.9028 29.9C90.9028 31.35 91.2278 32.505 91.8778 33.365C92.5378 34.215 93.5028 34.64 94.7728 34.64ZM112.321 38.48C111.051 38.48 110.016 38.265 109.216 37.835C108.416 37.405 107.791 36.86 107.341 36.2C106.901 35.54 106.586 34.855 106.396 34.145C106.206 33.425 106.091 32.77 106.051 32.18C106.011 31.59 105.991 31.16 105.991 30.89V21.8H110.131V29.45C110.131 29.82 110.151 30.295 110.191 30.875C110.231 31.445 110.356 32.02 110.566 32.6C110.776 33.18 111.116 33.665 111.586 34.055C112.066 34.445 112.741 34.64 113.611 34.64C113.961 34.64 114.336 34.585 114.736 34.475C115.136 34.365 115.511 34.155 115.861 33.845C116.211 33.525 116.496 33.06 116.716 32.45C116.946 31.83 117.061 31.02 117.061 30.02L119.401 31.13C119.401 32.41 119.141 33.61 118.621 34.73C118.101 35.85 117.316 36.755 116.266 37.445C115.226 38.135 113.911 38.48 112.321 38.48ZM117.571 38V32.63H117.061V21.8H121.171V38H117.571ZM125.364 38V21.8H128.964V25.76L128.574 25.25C128.784 24.69 129.064 24.18 129.414 23.72C129.764 23.26 130.194 22.88 130.704 22.58C131.094 22.34 131.519 22.155 131.979 22.025C132.439 21.885 132.914 21.8 133.404 21.77C133.894 21.73 134.384 21.74 134.874 21.8V25.61C134.424 25.47 133.899 25.425 133.299 25.475C132.709 25.515 132.174 25.65 131.694 25.88C131.214 26.1 130.809 26.395 130.479 26.765C130.149 27.125 129.899 27.555 129.729 28.055C129.559 28.545 129.474 29.1 129.474 29.72V38H125.364ZM143.471 38.45C141.431 38.45 139.781 37.99 138.521 37.07C137.271 36.14 136.511 34.83 136.241 33.14L140.411 32.51C140.581 33.27 140.956 33.865 141.536 34.295C142.126 34.725 142.871 34.94 143.771 34.94C144.511 34.94 145.081 34.8 145.481 34.52C145.881 34.23 146.081 33.83 146.081 33.32C146.081 33 146.001 32.745 145.841 32.555C145.681 32.355 145.321 32.16 144.761 31.97C144.211 31.78 143.351 31.53 142.181 31.22C140.861 30.88 139.806 30.5 139.016 30.08C138.226 29.66 137.656 29.16 137.306 28.58C136.956 27.99 136.781 27.28 136.781 26.45C136.781 25.41 137.046 24.51 137.576 23.75C138.106 22.98 138.851 22.39 139.811 21.98C140.781 21.56 141.921 21.35 143.231 21.35C144.501 21.35 145.626 21.545 146.606 21.935C147.586 22.325 148.376 22.88 148.976 23.6C149.586 24.32 149.961 25.17 150.101 26.15L145.931 26.9C145.861 26.3 145.601 25.825 145.151 25.475C144.701 25.125 144.091 24.92 143.321 24.86C142.571 24.81 141.966 24.91 141.506 25.16C141.056 25.41 140.831 25.77 140.831 26.24C140.831 26.52 140.926 26.755 141.116 26.945C141.316 27.135 141.721 27.33 142.331 27.53C142.951 27.73 143.891 27.99 145.151 28.31C146.381 28.63 147.366 29.005 148.106 29.435C148.856 29.855 149.401 30.365 149.741 30.965C150.081 31.555 150.251 32.27 150.251 33.11C150.251 34.77 149.651 36.075 148.451 37.025C147.251 37.975 145.591 38.45 143.471 38.45ZM161.077 38.45C159.417 38.45 157.952 38.095 156.682 37.385C155.422 36.665 154.432 35.68 153.712 34.43C153.002 33.17 152.647 31.73 152.647 30.11C152.647 28.34 152.997 26.8 153.697 25.49C154.397 24.18 155.362 23.165 156.592 22.445C157.822 21.715 159.237 21.35 160.837 21.35C162.537 21.35 163.982 21.75 165.172 22.55C166.362 23.35 167.242 24.475 167.812 25.925C168.382 27.375 168.582 29.08 168.412 31.04H164.377V29.54C164.377 27.89 164.112 26.705 163.582 25.985C163.062 25.255 162.207 24.89 161.017 24.89C159.627 24.89 158.602 25.315 157.942 26.165C157.292 27.005 156.967 28.25 156.967 29.9C156.967 31.41 157.292 32.58 157.942 33.41C158.602 34.23 159.567 34.64 160.837 34.64C161.637 34.64 162.322 34.465 162.892 34.115C163.462 33.765 163.897 33.26 164.197 32.6L168.277 33.77C167.667 35.25 166.702 36.4 165.382 37.22C164.072 38.04 162.637 38.45 161.077 38.45ZM155.707 31.04V28.01H166.447V31.04H155.707ZM171.799 38V16.4H175.459L182.599 30.74L189.739 16.4H193.399V38H189.589V25.1L183.319 38H181.879L175.609 25.1V38H171.799ZM205.14 38.45C203.48 38.45 202.015 38.095 200.745 37.385C199.485 36.665 198.495 35.68 197.775 34.43C197.065 33.17 196.71 31.73 196.71 30.11C196.71 28.34 197.06 26.8 197.76 25.49C198.46 24.18 199.425 23.165 200.655 22.445C201.885 21.715 203.3 21.35 204.9 21.35C206.6 21.35 208.045 21.75 209.235 22.55C210.425 23.35 211.305 24.475 211.875 25.925C212.445 27.375 212.645 29.08 212.475 31.04H208.44V29.54C208.44 27.89 208.175 26.705 207.645 25.985C207.125 25.255 206.27 24.89 205.08 24.89C203.69 24.89 202.665 25.315 202.005 26.165C201.355 27.005 201.03 28.25 201.03 29.9C201.03 31.41 201.355 32.58 202.005 33.41C202.665 34.23 203.63 34.64 204.9 34.64C205.7 34.64 206.385 34.465 206.955 34.115C207.525 33.765 207.96 33.26 208.26 32.6L212.34 33.77C211.73 35.25 210.765 36.4 209.445 37.22C208.135 38.04 206.7 38.45 205.14 38.45ZM199.77 31.04V28.01H210.51V31.04H199.77ZM216.162 38V16.4H220.242V34.19H229.542V38H216.162ZM232.668 45.2L235.788 36.62L235.848 39.14L228.798 21.8H233.028L237.768 34.07H236.808L241.518 21.8H245.598L236.448 45.2H232.668Z" fill="#0A033C"/>
<defs>
<clipPath id="clip0_356_281">
<rect width="38.88" height="32.4" fill="white" transform="translate(7.47998 10.8)"/>
</clipPath>
</defs>
</svg>
